# xmcd
#
# Track frame offsets:
#	150
#	17286
#	41422
#	59779
#	75528
#	94365
#	110860
#	125827
#	140924
#	156700
#	176573
#	194997
#
# Disc length: 2777 seconds
#
# Revision: 2
# Processed by: cddbd v1.5.1PL0 Copyright (c) Steve Scherf et al.
# Submitted via: audiograbber 1.83.01
#
DISCID=bd0ad70c
DTITLE=Marco Paulo - 35 anos
DYEAR=1900
DGENRE=Portugues
TTITLE0=Te amo,te amo
TTITLE1=Nossa Senhora
TTITLE2=Fruta fresca
TTITLE3=Deixa a Musica ficar
TTITLE4=Bom dia tristeza
TTITLE5=Amores e amores
TTITLE6=O Grito
TTITLE7=Como passaram os anos
TTITLE8=Quando viras
TTITLE9=Frases freitas
TTITLE10=Terra Magica
TTITLE11=Amália a nossa voz
EXTD=
EXTT0=
EXTT1=
EXTT2=
EXTT3=
EXTT4=
EXTT5=
EXTT6=
EXTT7=
EXTT8=
EXTT9=
EXTT10=
EXTT11=
PLAYORDER=
